<?xml version="1.0" encoding="UTF-8"?><svg id="a" xmlns="http://www.w3.org/2000/svg" viewBox="0 0 960 236.59"><defs><style>.b{fill:#4d4d4d;}.c{fill:#f7931e;}</style></defs><g><path class="b" d="M85.37,58.86c-9.96,0-16.92,6.96-16.92,19.65v41.06h-13.78v-41.06c0-12.69-5.05-19.65-15.28-19.65s-16.92,6.96-16.92,19.65v41.06H8.7V48.63h13.78v14.19h.41c1.09-5.32,7.91-15.55,21.96-15.55,9.96,0,18.55,4.77,21.97,16.1,1.64-5.73,8.59-16.1,23.47-16.1,13.78,0,24.15,8.05,24.15,28.1v44.2h-13.78v-41.06c0-12.69-4.91-19.65-15.28-19.65Z"/><path class="b" d="M150.17,19.98c4.37,0,8.19,3.68,8.19,8.19s-3.82,8.19-8.19,8.19-8.19-3.55-8.19-8.19,3.82-8.19,8.19-8.19Zm-6.82,28.65h13.78V119.57h-13.78V48.63Z"/><path class="b" d="M207.74,83.69l-24.15-35.06h15.14l16.64,24.97,16.78-24.97h15.14l-24.15,35.06,25.1,35.88h-15.14l-17.74-25.79-17.74,25.79h-15.01l25.1-35.88Z"/><path class="b" d="M265.05,84.24c0-26.06,15.55-36.97,33.83-36.97s32.33,11.05,32.33,35.88c0,2.46-.14,3.82-.41,5.32h-52.52c1.09,14.87,8.6,21.69,21.28,21.69,8.73,0,15.42-3.14,18.42-11.46h12.28c-4.23,15.83-16.37,22.24-30.83,22.24-19.1,0-34.38-11.19-34.38-36.7Zm53.07-6.14c-.27-12.41-7.23-20.05-19.37-20.05-11.32,0-19.1,6.55-20.33,20.05h39.7Z"/><path class="b" d="M353.99,84.1c0-25.78,15.83-36.84,31.65-36.84,10.5,0,19.51,4.77,23.74,12.55V24.07h13.78V119.57h-13.78v-11.19c-4.23,7.78-13.23,12.55-23.74,12.55-15.83,0-31.65-11.19-31.65-36.84Zm34.52,25.24c10.91,0,21.56-7.91,21.56-25.24s-10.64-25.24-21.56-25.24-21.42,7.91-21.42,25.24,10.37,25.24,21.42,25.24Z"/><path class="b" d="M483.19,24.07h17.74l35.88,95.5h-14.87l-8.05-21.96h-43.66l-8.05,21.96h-14.87l35.88-95.5Zm26.74,62.76l-17.46-47.89h-.82l-17.46,47.89h35.74Z"/><path class="b" d="M560.27,48.63h13.78v16.37h.41c2.05-8.32,8.73-17.19,21.69-17.19,1.77,0,3.68,.14,5.32,.68v11.6c-1.77-.27-3.41-.41-5.18-.41-13.23,0-22.24,8.59-22.24,24.42v35.47h-13.78V48.63Z"/><path class="b" d="M625.62,48.63h13.78v16.37h.41c2.05-8.32,8.73-17.19,21.69-17.19,1.77,0,3.68,.14,5.32,.68v11.6c-1.77-.27-3.41-.41-5.18-.41-13.23,0-22.24,8.59-22.24,24.42v35.47h-13.78V48.63Z"/><path class="b" d="M684.15,101.02c0-13.64,9.96-19.24,22.65-20.74l17.6-2.05c6.55-.82,8.73-2.05,8.73-4.23v-1.91c0-11.32-5.87-14.33-15.83-14.33s-15.96,3-15.96,12.01v1.64h-13.23v-2.87c0-14.19,9.96-21.28,29.47-21.28s29.33,7.5,29.33,24.69v47.61h-12.96v-11.46h-.54c-1.36,2.73-8.05,12.82-25.51,12.82-13.23,0-23.74-5.87-23.74-19.92Zm27.15,9.14c15.01,0,21.83-9.28,21.83-16.92v-7.78c-.96,1.5-2.73,2.46-9.69,3.27l-13.37,1.77c-8.87,1.09-12.14,4.23-12.14,9.82,0,6.69,4.77,9.82,13.37,9.82Z"/><path class="b" d="M793.15,124.62c1.5-3.82,1.5-6.14,.27-9.41l-26.6-66.58h14.19l20.33,54.16,20.46-54.16h14.19l-30.01,75.04c-7.37,18.28-16.1,24.42-31.92,22.51v-11.87c11.73,1.64,16.37-3,19.1-9.69Z"/><path class="b" d="M860.14,17.93h24.83v11.87h-11.05V125.44h11.05v11.87h-24.83V17.93Z"/><path class="b" d="M913.89,137.31v-11.87h11.05V29.8h-11.05v-11.87h24.83v119.38h-24.83Z"/></g><g><path class="c" d="M4.5,175.7c0-23.56,13.39-35.09,30.11-35.09s30.01,11.53,30.01,35.09-13.39,35.19-30.01,35.19-30.11-11.53-30.11-35.19Zm30.11,31.47c14.37,0,25.9-9.97,25.9-31.47s-11.53-31.38-25.9-31.38-26,9.97-26,31.38,11.53,31.47,26,31.47Z"/><path class="c" d="M79.95,184.11v-42.62h4.11v42.52c0,14.76,7.82,23.07,21.02,23.07s21.11-8.31,21.11-23.07v-42.52h4.2v42.62c0,16.71-9.58,26.78-25.32,26.78s-25.12-10.07-25.12-26.78Z"/><path class="c" d="M166.75,145.4h-22.58v-3.91h49.36v3.91h-22.58v64.51h-4.2v-64.51Z"/><path class="c" d="M207.41,141.49h42.42v3.81h-38.22v28.35h31.28v3.81h-31.28v32.45h-4.2v-68.42Z"/><path class="c" d="M263.62,141.49h4.2v68.42h-4.2v-68.42Z"/><path class="c" d="M304.18,145.4h-22.58v-3.91h49.36v3.91h-22.58v64.51h-4.2v-64.51Z"/><path class="c" d="M364.49,145.4h-22.58v-3.91h49.36v3.91h-22.58v64.51h-4.2v-64.51Z"/><path class="c" d="M405.15,141.49h41.54v3.81h-37.34v27.37h34.41v3.71h-34.41v29.71h38.32v3.81h-42.52v-68.42Z"/><path class="c" d="M462.03,141.49h23.36c14.76,0,22.87,7.23,22.87,20.14,0,10.65-5.87,17.69-16.81,19.35l17.3,28.93h-4.4l-17.11-28.44h-21.02v28.44h-4.2v-68.42Zm23.17,36.17c12.32,0,18.96-5.57,18.96-16.03s-6.65-16.32-18.96-16.32h-18.96v32.35h18.96Z"/><path class="c" d="M520.19,191.44h4.01c.49,8.8,6.94,15.64,20.82,15.64s19.65-6.26,19.65-15.25-6.84-13.1-15.93-14.86l-8.7-1.76c-12.71-2.64-17.79-8.9-17.79-17.3,0-9.97,7.04-17.3,22.09-17.3s22.38,7.23,22.38,16.62h-4.01c-.49-6.84-5.57-12.8-18.38-12.8s-17.89,5.67-17.89,13.49c0,6.94,4.3,11.63,15.05,13.78l8.8,1.76c10.36,2.05,18.57,6.65,18.57,18.28s-8.11,19.16-23.95,19.16c-16.81,0-24.73-8.8-24.73-19.45Z"/></g></svg>